<svg width="110" height="82" viewBox="0 0 110 82" fill="none" xmlns="http://www.w3.org/2000/svg">
<path d="M14 22L21.7942 37.75H6.20577L14 22Z" fill="#FEFFEF"/>
<path d="M14 31L24.3923 51.25H3.6077L14 31Z" fill="#FEFFEF"/>
<path d="M14 43L26.1244 63.25H1.87564L14 43Z" fill="#FEFFEF"/>
<line x1="15" y1="35" x2="15" y2="82" stroke="#FEFFEF" stroke-width="2"/>
<path d="M54 32L61.7942 47.75H46.2058L54 32Z" fill="#FEFFEF"/>
<path d="M54 41L64.3923 61.25H43.6077L54 41Z" fill="#FEFFEF"/>
<path d="M54 53L66.1244 73.25H41.8756L54 53Z" fill="#FEFFEF"/>
<line x1="55" y1="35" x2="55" y2="82" stroke="#FEFFEF" stroke-width="2"/>
<path d="M96 0L103.794 15.75H88.2058L96 0Z" fill="#FEFFEF"/>
<path d="M96 9L106.392 29.25H85.6077L96 9Z" fill="#FEFFEF"/>
<path d="M96 21L108.124 41.25H83.8756L96 21Z" fill="#FEFFEF"/>
<line x1="97" y1="35" x2="97" y2="82" stroke="#FEFFEF" stroke-width="2"/>
</svg>
